<svg width="40" height="38" viewBox="0 0 40 38" fill="none" xmlns="http://www.w3.org/2000/svg">
<g id="Group 70">
<path id="Vector" fill-rule="evenodd" clip-rule="evenodd" d="M22.1105 1.4001C20.7567 0.0368122 18.5624 0.0372596 17.2093 1.40112L5.91618 12.7835L5.90656 12.7807L5.87087 12.7845C5.88557 12.7917 5.9 12.7987 5.91413 12.8058C3.93309 13.0149 3.09256 13.6147 3.08304 14.3849C3.0864 14.6714 3.20308 14.9809 3.4174 15.3021L3.40709 15.3125C5.20807 18.0491 14.13 21.6592 20.442 19.2133C15.7114 21.5963 4.57058 22.0686 1.29834 17.4417C0.587712 18.2162 0.29039 19.2341 0.402357 20.2122C1.26679 25.0125 10.9312 26.322 20.5957 19.3671L22.6871 21.4741C20.0847 24.1678 16.2407 39.8142 21.9525 37.4253C22.088 37.3326 22.203 37.2497 22.3594 37.1305L22.614 36.8883C22.5993 36.892 22.5847 36.8955 22.5702 36.8989L37.8677 22.3489C39.2881 20.9979 39.3202 18.7318 37.9387 17.3404L22.1105 1.4001ZM20.4446 6.1418L20.9674 4.03478L21.4902 6.1418L23.0588 6.66857L21.4902 7.19534L20.9674 9.30237L20.4446 7.19534L18.876 6.66857L20.4446 6.1418ZM13.9731 13.0201L14.3217 11.6154L14.6702 13.0201L15.716 13.3713L14.6702 13.7224L14.3217 15.1271L13.9731 13.7224L12.9275 13.3713L13.9731 13.0201ZM26.1129 24.8686L25.7644 26.2732L24.7187 26.6244L25.7644 26.9756L26.1129 28.3802L26.4615 26.9756L27.5072 26.6244L26.4615 26.2732L26.1129 24.8686Z" fill="#FFD05B"/>
<path id="Vector_2" fill-rule="evenodd" clip-rule="evenodd" d="M39.0456 2.79443C35.7752 2.79443 32.6737 4.25796 30.58 6.78919L23.1316 15.7945L27.4326 9.29441L20.2932 12.3771C19.3865 12.7686 19.159 13.9588 19.8565 14.6616L22.154 16.9762L20.9809 18.3944L23.5617 20.9944L24.9693 19.8126L27.2668 22.1273C27.9642 22.83 29.1456 22.6008 29.5341 21.6874L32.5939 14.4945L26.1423 18.8278L35.0806 11.3234C37.593 9.21406 39.0456 6.08935 39.0456 2.79443ZM31.9488 9.94459C32.6614 10.6625 33.8168 10.6625 34.5295 9.94459C35.2421 9.22657 35.2421 8.06253 34.5295 7.3446C33.8168 6.6266 32.6614 6.6266 31.9488 7.3446C31.2362 8.06253 31.2362 9.22657 31.9488 9.94459Z" fill="#FF8057"/>
<path id="Vector_3" opacity="0.6" d="M1.21533 17.3208C2.92403 23.2189 13.3126 22.9114 20.44 19.2144C15.6674 21.6171 4.37726 22.076 1.21533 17.3208Z" fill="#424242"/>
<path id="Vector_4" opacity="0.6" d="M21.9526 37.4253C17.1397 39.4382 19.1117 28.6457 21.4085 23.5874C19.7343 28.0834 18.3051 37.9946 22.6141 36.8883L22.3595 37.1305C22.2031 37.2497 22.0881 37.3326 21.9526 37.4253Z" fill="#424242"/>
</g>
</svg>
