<svg width="24" height="25" viewBox="0 0 24 25" fill="none" xmlns="http://www.w3.org/2000/svg">
<g id="Frame">
<path id="Vector" d="M20 4.49219H4C2.897 4.49219 2 5.38919 2 6.49219V18.4922C2 19.5952 2.897 20.4922 4 20.4922H20C21.103 20.4922 22 19.5952 22 18.4922V6.49219C22 5.38919 21.103 4.49219 20 4.49219ZM20 6.49219V7.00319L12 13.2262L4 7.00419V6.49219H20ZM4 18.4922V9.53619L11.386 15.2812C11.5611 15.4187 11.7773 15.4935 12 15.4935C12.2227 15.4935 12.4389 15.4187 12.614 15.2812L20 9.53619L20.002 18.4922H4Z" fill="white"/>
</g>
</svg>
