<svg width="235" height="33" viewBox="0 0 235 33" fill="none" xmlns="http://www.w3.org/2000/svg">
<g id="Pattern">
<g id="Group">
<path id="Vector" fill-rule="evenodd" clip-rule="evenodd" d="M62.8396 19.6578C52.771 22.5769 41.1462 25.482 29.9631 26.2074C20.4047 26.8265 11.1722 25.8649 3.61528 21.7733C2.55001 21.1972 1.21602 21.5933 0.639919 22.6594C0.0629386 23.7247 0.459883 25.0587 1.52515 25.6357C9.76885 30.0979 19.8207 31.265 30.2468 30.5888C41.631 29.8511 53.4657 26.9266 63.7363 23.9653C64.928 26.3795 67.3957 28.6303 71.7429 30.291C78.4198 32.8422 87.5365 32.8106 97.1405 31.373C111.07 29.289 126.054 24.3193 135.688 20.788C136.083 20.644 136.671 20.4148 137.391 20.1127C137.611 20.5974 137.857 21.0752 138.129 21.5441C140.491 25.6313 144.672 28.936 148.931 30.1163C175.944 37.6003 207.472 28.633 233.142 21.3351C234.301 21.004 234.977 19.7886 234.652 18.6232C234.319 17.4579 233.107 16.7808 231.939 17.1119C206.989 24.206 176.357 33.1566 150.099 25.8842C146.867 24.9884 143.723 22.4487 141.932 19.3469C141.73 19.0009 141.554 18.6469 141.387 18.2878C144.926 16.534 149.089 14.0891 151.328 11.472C153.629 8.78911 154.2 5.92529 152.198 3.22042C150.477 0.908105 147.868 0.711384 145.155 1.91013C142.23 3.19407 139.218 6.19572 138.243 7.60436C136.416 10.2355 135.837 13.0897 136.171 15.8727C135.31 16.2363 134.611 16.5067 134.18 16.6648C124.757 20.1179 110.111 24.992 96.4907 27.0303C87.7271 28.3423 79.4026 28.5171 73.3096 26.1898C70.711 25.1966 68.994 24.0374 68.0623 22.692C69.9012 22.1422 71.6744 21.6012 73.3684 21.0848C76.7188 20.0635 83.6943 18.373 88.6782 15.3598C92.6415 12.9641 95.3288 9.70508 95.1725 5.61967C95.0926 3.52076 93.878 2.12 91.945 1.33488C89.0566 0.16248 84.0614 0.729788 82.2014 1.12498C76.5598 2.32109 69.0301 7.27244 65.3047 12.8517C63.8179 15.0779 62.9336 17.4069 62.8396 19.6578ZM67.4739 18.286C69.0678 17.8065 70.6082 17.3358 72.088 16.8844C75.2153 15.9306 81.7526 14.4157 86.4062 11.602C88.8704 10.1125 90.8824 8.32803 90.785 5.78739C90.777 5.58979 90.5812 5.5336 90.4082 5.45281C90.1403 5.32898 89.8338 5.24377 89.5071 5.17703C87.2967 4.72563 84.3275 5.16208 83.1121 5.42027C78.3786 6.42406 72.0818 10.6087 68.9563 15.2904C68.2959 16.2793 67.7698 17.2866 67.4739 18.286ZM140.509 13.8511C142.573 12.7893 144.733 11.5054 146.437 10.1081C147.341 9.36605 148.105 8.60292 148.588 7.81078C148.992 7.15564 149.15 6.48465 148.667 5.83654C148.474 5.57396 148.184 5.56872 147.886 5.6179C147.57 5.67059 147.245 5.78297 146.92 5.92788C144.777 6.87107 142.564 9.07449 141.853 10.1081C141.018 11.3069 140.605 12.575 140.509 13.8511Z" fill="#5BB6D2"/>
</g>
</g>
</svg>
