<svg width="24" height="25" viewBox="0 0 24 25" fill="none" xmlns="http://www.w3.org/2000/svg">
<g id="Frame">
<path id="Vector" d="M17.7068 12.7854C17.6141 12.6924 17.5039 12.6187 17.3825 12.5684C17.2612 12.5181 17.1312 12.4922 16.9998 12.4922C16.8685 12.4922 16.7385 12.5181 16.6172 12.5684C16.4958 12.6187 16.3856 12.6924 16.2928 12.7854L14.6988 14.3794C13.9598 14.1594 12.5808 13.6594 11.7068 12.7854C10.8328 11.9114 10.3328 10.5324 10.1128 9.79339L11.7068 8.19939C11.7998 8.1066 11.8735 7.9964 11.9238 7.87508C11.9742 7.75377 12 7.62372 12 7.49239C12 7.36106 11.9742 7.23101 11.9238 7.1097C11.8735 6.98838 11.7998 6.87818 11.7068 6.78539L7.70685 2.78539C7.61406 2.69244 7.50385 2.61871 7.38254 2.56839C7.26122 2.51808 7.13118 2.49219 6.99985 2.49219C6.86851 2.49219 6.73847 2.51808 6.61715 2.56839C6.49584 2.61871 6.38563 2.69244 6.29285 2.78539L3.58085 5.49739C3.20085 5.87739 2.98685 6.39939 2.99485 6.93239C3.01785 8.35639 3.39485 13.3024 7.29285 17.2004C11.1908 21.0984 16.1368 21.4744 17.5618 21.4984H17.5898C18.1178 21.4984 18.6168 21.2904 18.9948 20.9124L21.7068 18.2004C21.7998 18.1076 21.8735 17.9974 21.9238 17.8761C21.9741 17.7548 22 17.6247 22 17.4934C22 17.3621 21.9741 17.232 21.9238 17.1107C21.8735 16.9894 21.7998 16.8792 21.7068 16.7864L17.7068 12.7854ZM17.5798 19.4974C16.3318 19.4764 12.0618 19.1414 8.70685 15.7854C5.34085 12.4194 5.01485 8.13439 4.99485 6.91139L6.99985 4.90639L9.58585 7.49239L8.29285 8.78539C8.17531 8.90284 8.08889 9.04773 8.0414 9.20696C7.99391 9.36619 7.98684 9.53474 8.02085 9.69739C8.04485 9.81239 8.63185 12.5394 10.2918 14.1994C11.9518 15.8594 14.6788 16.4464 14.7938 16.4704C14.9564 16.5053 15.1251 16.4988 15.2845 16.4515C15.4439 16.4041 15.5888 16.3174 15.7058 16.1994L16.9998 14.9064L19.5858 17.4924L17.5798 19.4974Z" fill="white"/>
</g>
</svg>
